<svg width="291" height="56" viewBox="0 0 291 56" fill="none" xmlns="http://www.w3.org/2000/svg">
<path d="M65.5547 41H74.1562V27.3828H87.6328V41H96.2109V7.17969H87.6328V20.4688H74.1562V7.17969H65.5547V41ZM103.583 12.7344C105.998 12.7344 107.826 10.8594 107.826 8.63281C107.826 6.40625 105.998 4.55469 103.583 4.55469C101.193 4.55469 99.3413 6.40625 99.3413 8.63281C99.3413 10.8594 101.193 12.7344 103.583 12.7344ZM99.435 41H107.732V15.4766H99.435V41ZM110.347 49.2031H118.667V36.6172H118.831C120.097 39.6875 122.909 41.5391 126.589 41.5391C132.964 41.5391 136.69 36.6406 136.69 28.25V28.2266C136.69 19.7891 132.94 14.9375 126.495 14.9375C122.862 14.9375 120.143 16.8359 118.854 20.0234H118.667V15.4766H110.347V49.2031ZM123.448 34.7891C120.542 34.7891 118.62 32.3047 118.62 28.2734V28.25C118.62 24.1719 120.565 21.7109 123.448 21.7109C126.378 21.7109 128.253 24.1484 128.253 28.2266V28.25C128.253 32.2812 126.378 34.7891 123.448 34.7891ZM154.844 41.6094C157 41.6094 158.969 41.3047 160.75 40.7422L162.93 43.8359H170.711L166.328 37.6016C169.68 34.5781 171.555 29.9141 171.555 24.1016V24.0547C171.555 13.2969 165.133 6.57031 154.844 6.57031C144.625 6.57031 138.157 13.2969 138.157 24.0547V24.1016C138.157 34.8828 144.578 41.6094 154.844 41.6094ZM154.844 34.4844C150.016 34.4844 146.922 30.5234 146.922 24.1016V24.0547C146.922 17.6328 150.039 13.6953 154.844 13.6953C159.696 13.6953 162.813 17.6562 162.813 24.0547V24.1016C162.813 26.6562 162.297 28.8594 161.407 30.5469L159.907 28.3906H152.125L156.297 34.3672C155.828 34.4375 155.36 34.4844 154.844 34.4844ZM182.42 41.5391C186.287 41.5391 188.888 39.7109 190.177 36.5H190.342V41H198.638V15.4766H190.342V29.9609C190.342 32.7969 188.677 34.7891 186.052 34.7891C183.31 34.7891 181.951 33.0547 181.951 30.125V15.4766H173.631V31.9062C173.631 37.9531 176.818 41.5391 182.42 41.5391ZM213.417 41.5391C221.55 41.5391 224.761 36.7578 225.534 33.2188L225.605 32.9375H218.105L218.081 33.0547C217.706 34.1094 216.253 35.6328 213.581 35.6328C210.558 35.6328 208.683 33.5938 208.589 30.1484H225.745V27.7109C225.745 19.9766 220.847 14.9375 213.136 14.9375C205.378 14.9375 200.456 20.0234 200.456 28.2266V28.25C200.456 36.5 205.355 41.5391 213.417 41.5391ZM213.323 20.8438C215.761 20.8438 217.495 22.3906 217.917 25.25H208.706C209.128 22.4375 210.886 20.8438 213.323 20.8438ZM236.212 41.5391C240.079 41.5391 242.68 39.7109 243.969 36.5H244.133V41H252.43V15.4766H244.133V29.9609C244.133 32.7969 242.469 34.7891 239.844 34.7891C237.102 34.7891 235.743 33.0547 235.743 30.125V15.4766H227.423V31.9062C227.423 37.9531 230.61 41.5391 236.212 41.5391ZM267.209 41.5391C275.342 41.5391 278.553 36.7578 279.326 33.2188L279.397 32.9375H271.897L271.873 33.0547C271.498 34.1094 270.045 35.6328 267.373 35.6328C264.35 35.6328 262.475 33.5938 262.381 30.1484H279.537V27.7109C279.537 19.9766 274.639 14.9375 266.928 14.9375C259.17 14.9375 254.248 20.0234 254.248 28.2266V28.25C254.248 36.5 259.147 41.5391 267.209 41.5391ZM267.115 20.8438C269.553 20.8438 271.287 22.3906 271.709 25.25H262.498C262.92 22.4375 264.678 20.8438 267.115 20.8438Z" fill="#3E68FF"/>
<path d="M6.78414 2.29405C5.02785 2.90128 3.73646 4.73983 3.75368 6.62899C3.75368 8.75429 4.8901 10.2049 7.11129 10.8796C7.85169 11.1157 8.64374 11.3013 8.8848 11.3013C9.41858 11.3013 9.40136 11.3687 8.78149 12.6675C7.88613 14.5736 7.74838 15.67 7.74838 21.3037L7.73116 26.3977L6.69805 26.988C4.59738 28.1519 2.63447 30.7663 1.98017 33.2121C1.75633 34.0892 1.70467 34.9663 1.75633 37.935C1.8252 42.0169 1.98017 42.7422 3.23712 44.7832C5.25169 48.0218 9.8146 50.2989 12.9484 49.6073L13.7404 49.4218L15.2384 50.4338C16.9259 51.5471 18.4928 52.2386 20.6623 52.8121C21.9365 53.1495 22.5219 53.2001 25.1391 53.2001C27.8424 53.2001 28.3245 53.1495 29.8226 52.7615C31.8716 52.2218 34.0067 51.2434 35.4186 50.2145L36.4689 49.4386L37.5709 49.6242C38.449 49.776 38.9139 49.7591 40.0159 49.5398C44.0967 48.7133 47.2649 45.8121 48.298 41.9157C48.608 40.735 48.6596 34.6459 48.3669 33.3977C47.8159 31.0362 45.6981 28.1687 43.5974 26.988L42.5643 26.3977L42.4954 20.7471C42.4265 15.3663 42.4093 15.0459 42.0305 14.0001C41.8067 13.3928 41.4795 12.6169 41.3073 12.2796C40.8769 11.4531 40.8941 11.3013 41.3934 11.3013C41.6345 11.3013 42.4265 11.1157 43.1841 10.8796C45.4226 10.188 46.5418 8.77116 46.5418 6.59525C46.5418 3.08682 42.7192 0.927784 39.551 2.64827C38.4146 3.28923 37.6742 4.43622 37.261 6.22417C37.0888 6.9326 36.951 7.52296 36.9338 7.5567C36.9166 7.57357 36.4689 7.40489 35.9351 7.18562C33.6106 6.17357 33.4729 6.1567 25.1391 6.1567C16.8053 6.1567 16.6676 6.17357 14.3431 7.18562C13.8093 7.40489 13.3616 7.57357 13.3444 7.5567C13.3272 7.52296 13.1894 6.9326 13.0173 6.24104C12.604 4.43622 12.1047 3.55911 11.1232 2.91814C9.76295 2.0073 8.2305 1.78802 6.78414 2.29405ZM9.74573 5.29646C10.1073 5.68441 10.3312 6.51092 10.5722 8.16393L10.6583 8.82176L9.67686 8.70369C8.31659 8.55188 7.11129 8.13019 6.80136 7.70851C6.66361 7.5061 6.54308 7.00007 6.54308 6.56152C6.54308 5.86995 6.61195 5.70128 7.18017 5.22899C7.73116 4.73983 7.88613 4.68923 8.59209 4.77357C9.14308 4.84104 9.48745 4.97598 9.74573 5.29646ZM42.8398 4.95911C43.7524 5.41453 44.0795 6.79766 43.4941 7.65791C43.1841 8.13019 42.0305 8.55188 40.5841 8.70369C39.6027 8.82176 39.5855 8.82176 39.6716 8.41694C39.7232 8.19766 39.7921 7.67477 39.861 7.25309C40.0331 5.97116 40.2914 5.39766 40.8769 5.04345C41.5139 4.65549 42.2027 4.63863 42.8398 4.95911ZM33.1285 9.10851C33.8689 9.29405 34.8676 9.64827 35.3497 9.90128C36.555 10.5422 38.0358 12.0266 38.6901 13.2579C39.6716 15.0796 39.7749 15.7712 39.7749 20.882V25.5037L39.2411 25.4025C38.9484 25.3519 33.559 25.3013 27.2742 25.3013H15.8411V20.6121C15.8411 15.4507 15.9272 14.8097 16.9086 12.87C17.5285 11.6386 19.061 9.91814 20.1285 9.24345L20.9033 8.77116H26.3444C31.2173 8.77116 31.9404 8.80489 33.1285 9.10851ZM39.6199 28.2362C41.204 28.5736 42.4265 29.2145 43.563 30.3447C44.7166 31.4748 45.5431 33.0434 45.8014 34.5784C46.0252 35.9953 46.0252 39.2507 45.7841 40.6507C45.3192 43.4844 43.1669 45.8627 40.3086 46.723C38.9484 47.1447 38.4318 47.1447 36.6411 46.723C32.5431 45.7784 27.1537 45.3061 22.8146 45.5422C19.061 45.7447 16.8742 46.0483 12.759 46.9254C9.72851 47.5495 6.11262 45.2724 4.83844 41.9157C4.35633 40.6675 4.1497 37.0916 4.44242 34.9663C4.92454 31.5254 7.26626 28.9615 10.5722 28.2531C12.1563 27.9157 38.0014 27.8989 39.6199 28.2362ZM29.9431 48.4266C32.7325 48.6965 32.8702 48.7639 31.5961 49.3206C29.3404 50.3157 28.2212 50.5181 25.1391 50.5013C22.7974 50.5013 22.057 50.4338 20.9722 50.1302C19.2159 49.6579 17.5974 48.9157 17.9418 48.7302C18.7166 48.3085 26.5682 48.1061 29.9431 48.4266Z" fill="#3E68FF"/>
<path d="M18.9749 17.0362C17.8901 17.694 17.4597 18.9085 17.9762 19.87C18.8888 21.5904 21.1616 21.6916 22.0742 20.0555C22.5047 19.2965 22.4014 18.1832 21.8504 17.5928C20.955 16.6651 19.9391 16.4627 18.9749 17.0362Z" fill="#3E68FF"/>
<path d="M29.1338 17.0193C28.4623 17.441 27.894 18.3013 27.894 18.9422C27.894 20.0218 28.8755 21.0844 29.9947 21.2025C31.8027 21.388 33.0768 19.5832 32.2848 17.9977C31.6993 16.8338 30.2013 16.3784 29.1338 17.0193Z" fill="#3E68FF"/>
<path d="M17.4768 32.2844C16.2715 32.7904 15.4795 34.241 15.7377 35.4555C15.996 36.7206 17.3046 37.7832 18.596 37.7832C20.094 37.7832 21.5232 36.4169 21.5232 34.9663C21.5232 32.9591 19.3192 31.4916 17.4768 32.2844ZM19.2675 33.6507C19.543 33.7856 19.853 34.123 19.9735 34.4097C20.1629 34.8651 20.1629 35.0338 19.9218 35.4892C19.1126 37.1591 16.7708 36.2483 17.253 34.4603C17.3391 34.123 17.5801 33.8025 17.8728 33.6675C18.4583 33.3471 18.6649 33.3471 19.2675 33.6507Z" fill="#3E68FF"/>
<path d="M30.5629 32.2844C29.8398 32.588 28.9616 33.6169 28.8239 34.3254C28.4967 36.0796 29.9258 37.7832 31.7338 37.7832C33.1802 37.7832 34.6093 36.3663 34.6093 34.9157C34.6093 32.9422 32.3881 31.5085 30.5629 32.2844ZM32.3537 33.6507C32.6292 33.7856 32.9391 34.123 33.0596 34.4097C33.5417 35.5398 32.302 36.7374 31.1484 36.2483C30.0464 35.8097 29.9431 34.2073 30.9762 33.6507C31.5444 33.3471 31.7682 33.3471 32.3537 33.6507Z" fill="#3E68FF"/>
</svg>
