<svg width="52" height="56" viewBox="0 0 52 56" fill="none" xmlns="http://www.w3.org/2000/svg">
<path d="M6.78414 2.29405C5.02785 2.90128 3.73646 4.73984 3.75368 6.62899C3.75368 8.7543 4.8901 10.2049 7.11129 10.8796C7.85169 11.1157 8.64374 11.3013 8.8848 11.3013C9.41858 11.3013 9.40136 11.3688 8.78149 12.6675C7.88613 14.5736 7.74838 15.67 7.74838 21.3037L7.73116 26.3977L6.69805 26.988C4.59738 28.1519 2.63447 30.7663 1.98017 33.2121C1.75633 34.0892 1.70467 34.9663 1.75633 37.935C1.8252 42.0169 1.98017 42.7422 3.23712 44.7832C5.25169 48.0218 9.8146 50.2989 12.9484 49.6073L13.7404 49.4218L15.2384 50.4338C16.9259 51.5471 18.4928 52.2386 20.6623 52.8121C21.9365 53.1495 22.5219 53.2001 25.1391 53.2001C27.8424 53.2001 28.3245 53.1495 29.8226 52.7615C31.8716 52.2218 34.0067 51.2435 35.4186 50.2145L36.4689 49.4386L37.5709 49.6242C38.449 49.776 38.9139 49.7591 40.0159 49.5398C44.0967 48.7133 47.2649 45.8121 48.298 41.9157C48.608 40.735 48.6596 34.6459 48.3669 33.3977C47.8159 31.0362 45.6981 28.1688 43.5974 26.988L42.5643 26.3977L42.4954 20.7471C42.4265 15.3663 42.4093 15.0459 42.0305 14.0001C41.8067 13.3928 41.4795 12.6169 41.3073 12.2796C40.8769 11.4531 40.8941 11.3013 41.3934 11.3013C41.6345 11.3013 42.4265 11.1157 43.1841 10.8796C45.4226 10.188 46.5418 8.77116 46.5418 6.59526C46.5418 3.08682 42.7192 0.927788 39.551 2.64827C38.4146 3.28923 37.6742 4.43622 37.261 6.22417C37.0888 6.93261 36.951 7.52297 36.9338 7.5567C36.9166 7.57357 36.4689 7.4049 35.9351 7.18562C33.6106 6.17357 33.4729 6.1567 25.1391 6.1567C16.8053 6.1567 16.6676 6.17357 14.3431 7.18562C13.8093 7.4049 13.3616 7.57357 13.3444 7.5567C13.3272 7.52297 13.1894 6.93261 13.0173 6.24104C12.604 4.43622 12.1047 3.55911 11.1232 2.91815C9.76295 2.00731 8.2305 1.78803 6.78414 2.29405ZM9.74573 5.29646C10.1073 5.68441 10.3312 6.51092 10.5722 8.16393L10.6583 8.82176L9.67686 8.70369C8.31659 8.55188 7.11129 8.1302 6.80136 7.70851C6.66361 7.5061 6.54308 7.00008 6.54308 6.56152C6.54308 5.86996 6.61195 5.70128 7.18017 5.22899C7.73116 4.73984 7.88613 4.68923 8.59209 4.77357C9.14308 4.84104 9.48745 4.97598 9.74573 5.29646ZM42.8398 4.95911C43.7524 5.41454 44.0795 6.79767 43.4941 7.65791C43.1841 8.1302 42.0305 8.55188 40.5841 8.70369C39.6027 8.82176 39.5855 8.82176 39.6716 8.41694C39.7232 8.19767 39.7921 7.67477 39.861 7.25309C40.0331 5.97116 40.2914 5.39767 40.8769 5.04345C41.5139 4.6555 42.2027 4.63863 42.8398 4.95911ZM33.1285 9.10851C33.8689 9.29405 34.8676 9.64827 35.3497 9.90128C36.555 10.5422 38.0358 12.0266 38.6901 13.2579C39.6716 15.0796 39.7749 15.7712 39.7749 20.882V25.5037L39.2411 25.4025C38.9484 25.3519 33.559 25.3013 27.2742 25.3013H15.8411V20.6121C15.8411 15.4507 15.9272 14.8097 16.9086 12.87C17.5285 11.6386 19.061 9.91815 20.1285 9.24345L20.9033 8.77116H26.3444C31.2173 8.77116 31.9404 8.8049 33.1285 9.10851ZM39.6199 28.2362C41.204 28.5736 42.4265 29.2145 43.563 30.3447C44.7166 31.4748 45.5431 33.0435 45.8014 34.5784C46.0252 35.9953 46.0252 39.2507 45.7841 40.6507C45.3192 43.4844 43.1669 45.8627 40.3086 46.723C38.9484 47.1447 38.4318 47.1447 36.6411 46.723C32.5431 45.7784 27.1537 45.3061 22.8146 45.5422C19.061 45.7447 16.8742 46.0483 12.759 46.9254C9.72851 47.5495 6.11262 45.2724 4.83844 41.9157C4.35633 40.6675 4.1497 37.0916 4.44242 34.9663C4.92454 31.5254 7.26626 28.9615 10.5722 28.2531C12.1563 27.9157 38.0014 27.8989 39.6199 28.2362ZM29.9431 48.4266C32.7325 48.6965 32.8702 48.7639 31.5961 49.3206C29.3404 50.3157 28.2212 50.5181 25.1391 50.5013C22.7974 50.5013 22.057 50.4338 20.9722 50.1302C19.2159 49.6579 17.5974 48.9157 17.9418 48.7302C18.7166 48.3085 26.5682 48.1061 29.9431 48.4266Z" fill="#3E68FF"/>
<path d="M18.9749 17.0362C17.8901 17.694 17.4597 18.9085 17.9762 19.87C18.8888 21.5904 21.1616 21.6916 22.0742 20.0555C22.5047 19.2965 22.4014 18.1832 21.8504 17.5928C20.955 16.6651 19.9391 16.4627 18.9749 17.0362Z" fill="#3E68FF"/>
<path d="M29.1338 17.0194C28.4623 17.441 27.894 18.3013 27.894 18.9422C27.894 20.0218 28.8755 21.0844 29.9947 21.2025C31.8027 21.388 33.0768 19.5832 32.2848 17.9977C31.6993 16.8338 30.2013 16.3784 29.1338 17.0194Z" fill="#3E68FF"/>
<path d="M17.4768 32.2844C16.2715 32.7904 15.4795 34.241 15.7377 35.4555C15.996 36.7206 17.3046 37.7832 18.596 37.7832C20.094 37.7832 21.5232 36.4169 21.5232 34.9663C21.5232 32.9591 19.3192 31.4916 17.4768 32.2844ZM19.2675 33.6507C19.543 33.7856 19.853 34.123 19.9735 34.4097C20.1629 34.8651 20.1629 35.0338 19.9218 35.4892C19.1126 37.1591 16.7708 36.2483 17.253 34.4603C17.3391 34.123 17.5801 33.8025 17.8728 33.6675C18.4583 33.3471 18.6649 33.3471 19.2675 33.6507Z" fill="#3E68FF"/>
<path d="M30.5629 32.2844C29.8398 32.588 28.9616 33.6169 28.8239 34.3254C28.4967 36.0796 29.9258 37.7832 31.7338 37.7832C33.1802 37.7832 34.6093 36.3663 34.6093 34.9157C34.6093 32.9422 32.3881 31.5085 30.5629 32.2844ZM32.3537 33.6507C32.6292 33.7856 32.9391 34.123 33.0596 34.4097C33.5417 35.5398 32.302 36.7374 31.1484 36.2483C30.0464 35.8097 29.9431 34.2073 30.9762 33.6507C31.5444 33.3471 31.7682 33.3471 32.3537 33.6507Z" fill="#3E68FF"/>
</svg>
